<svg xmlns="http://www.w3.org/2000/svg" width="111" height="26" fill="none" xmlns:v="https://vecta.io/nano"><path fill-rule="evenodd" d="M14.975 11.817c0 2.077 1.222 4.376 3.702 4.376h.259c-2.739 2.448-6.108 3.708-9.18 3.708-1.592.037-3.183-.371-4.59-1.187-.37-.223-.703-.482-1.036-.779-1.518-1.409-2.332-3.449-2.147-5.526.148-2.633 1.592-5.526 4.183-7.825A14.45 14.45 0 0 1 14.716.877h1.259c1.851.074 3.628.742 5.034 1.965.555.482.999 1.113 1.37 1.78h-1.221v4.005h-.037c-.592-.742-1.481-1.15-2.406-1.113-2.924 0-3.739 2.373-3.739 4.302zm-3.702 4.153h3.146v-5.192-.041c0-1.581.001-3.185-4.183-3.185-2.073 0-4.405.371-4.516 2.67h3.072c.037-.371.222-.853 1.259-.853.555 0 1.111.223 1.111.779 0 .519-.444.668-.925.742l-.884.122c-1.749.215-4.076.502-4.076 2.696 0 1.743 1.407 2.485 3.109 2.485 1.111 0 2.147-.222 2.85-.964h.037v.742zm8.551-6.156c1.222 0 1.481 1.075 1.481 2.04s-.296 2.04-1.481 2.04c-1.221 0-1.481-1.038-1.481-2.04 0-.964.259-2.04 1.481-2.04zM1.649 13.004c-.037 2.336 1.111 4.524 3.072 5.822.407 2.485 2.184 4.524 4.553 5.303 0 0-3.48.779-6.441-1.557s-2.702-6.824-1.185-9.568zm19.582 2.077l.035.868h2.665s-1.626 5.066-7.549 7.476-10.661-.779-11.253-4.339c0 0 6.367 3.894 14.326-2.93.703-.111 1.333-.519 1.777-1.075zm2.7.868V4.605h1.556l4.63 9.015 4.591-9.015h1.556v11.352h-1.089V6.089l-5.018 9.868-5.135-9.868v9.868h-1.089v-.01zM8.756 13.56c0 .371.444.742 1.036.742.703.074 1.333-.482 1.407-1.187v-.111-.742c-.407.185-.851.297-1.333.408-.74.185-1.11.334-1.11.89zm42.679-9.028h1.089v7.086l4.59-3.933h1.595l-3.696 3.116 3.968 5.12h-1.478l-3.346-4.378-1.712 1.41v2.968h-1.089l.078-11.39zM41.204 7.462c-2.568 0-3.423 1.039-3.579 2.782h1.011c.078-1.336.895-1.818 2.568-1.818 1.751 0 2.49.445 2.49 1.632 0 .816-.311.965-2.645 1.113-1.634.111-3.735.371-3.735 2.597 0 1.855 1.634 2.486 2.918 2.486 2.363 0 3.099-1.035 3.462-1.608v1.348h.934V9.911c0-1.595-.895-2.449-3.424-2.449zm-.835 4.668c2.094-.218 2.824-.294 3.286-.625v1.15c0 1.261-1.712 2.708-3.151 2.708-1.167 0-2.179-.408-2.179-1.707 0-.965.739-1.41 1.984-1.521l.06-.006zm6.554-4.446h-1.089v8.273h1.089v-4.081c0-1.929 1.05-3.265 2.412-3.339.389-.074.778-.037 1.128.111l.194-.927c-.272-.111-.584-.185-.895-.185-1.479-.037-2.334.371-2.84 1.447V7.685zm19.724 5.639c-.428 1.447-1.556 2.894-4.046 2.894-3.073 0-4.085-2.374-4.085-4.378 0-2.3 1.284-4.378 4.085-4.378 1.945 0 4.24.927 4.24 4.674h-7.275c0 1.707 1.128 3.116 3.035 3.116 1.79 0 2.607-.668 2.996-1.892l1.05-.037zm-.895-2.078c-.311-2.041-1.673-2.782-3.112-2.782-1.362 0-2.84.779-3.112 2.782h6.224zm2.374-6.159h1.089v2.597h2.14v.89h-2.179v5.454c0 .705.194 1.039 1.089 1.039a5.06 5.06 0 0 0 1.05-.111v1.002c-.389.074-.778.111-1.167.111-1.673 0-2.023-.705-2.023-2.04V8.575h-1.634v-.89h1.634V5.088zm4.318 2.597h1.089v1.41c.273-.705 1.012-1.67 3.112-1.67 3.074 0 4.085 2.374 4.085 4.378 0 2.3-1.284 4.378-4.085 4.378-1.323.037-2.529-.631-3.112-1.744v4.712h-1.089V7.685zm4.163 7.568c1.712 0 3.035-1.299 3.035-3.413 0-1.67-.856-3.413-3.035-3.413-1.789 0-3.112 1.224-3.112 3.413 0 1.707.934 3.413 3.112 3.413zm5.213-10.722h1.09v11.464h-1.09V4.531zm2.451 5.676c.155-1.744 1.011-2.783 3.579-2.783 2.529 0 3.423.853 3.423 2.449v6.084h-.934V14.61c-.363.573-1.099 1.608-3.462 1.608-1.284 0-2.918-.631-2.918-2.486 0-2.226 2.101-2.486 3.735-2.597 2.334-.148 2.645-.297 2.645-1.113 0-1.187-.739-1.632-2.49-1.632-1.712 0-2.49.482-2.567 1.818h-1.011zm6.069 1.298c-.462.331-1.192.407-3.286.624l-.059.006c-1.245.111-1.984.556-1.984 1.521 0 1.299 1.011 1.707 2.179 1.707 1.439 0 3.151-1.447 3.151-2.708v-1.15zm9.999 1.336c-.195 1.076-1.089 3.228-3.813 3.228s-4.24-1.781-4.24-4.378c0-2.486 1.4-4.378 4.24-4.378 2.567 0 3.579 1.781 3.735 2.968h-1.089c-.35-1.41-1.362-1.966-2.684-1.966-2.14 0-3.151 1.484-3.151 3.413 0 2.04 1.128 3.413 3.151 3.413 1.595 0 2.451-.928 2.724-2.226l1.128-.074zm8.909.334c-.428 1.447-1.557 2.894-4.046 2.894-3.074 0-4.086-2.374-4.086-4.378 0-2.3 1.285-4.378 4.086-4.378 1.945 0 4.24.927 4.24 4.675h-7.275c0 1.707 1.128 3.116 3.035 3.116 1.789 0 2.606-.668 2.995-1.892l1.051-.037zm-.856-2.115c-.312-2.04-1.673-2.782-3.113-2.782-1.361 0-2.84.779-3.112 2.782h6.225z" fill="#060d1f"/></svg>